<?xml version="1.0" standalone="no"?>
<!DOCTYPE svg PUBLIC "-//W3C//DTD SVG 20010904//EN"
 "http://www.w3.org/TR/2001/REC-SVG-20010904/DTD/svg10.dtd">
<svg version="1.0" xmlns="http://www.w3.org/2000/svg"
 width="256.000000pt" height="256.000000pt" viewBox="0 0 256.000000 256.000000"
 preserveAspectRatio="xMidYMid meet">
<metadata>
Created by potrace 1.11, written by Peter Selinger 2001-2013
</metadata>
<g transform="translate(0.000000,256.000000) scale(0.100000,-0.100000)"
fill="#000000" stroke="none">
<path d="M268 2292 l-268 -268 2 -244 3 -244 37 -1 c21 -1 39 3 41 9 2 6 3
100 3 209 -1 110 3 201 8 204 5 3 114 6 243 6 181 -1 237 2 247 13 10 10 13
65 14 236 0 123 1 232 1 243 1 20 8 20 723 20 l723 -1 2 -264 c1 -146 2 -281
3 -301 0 -35 1 -35 37 -32 20 1 39 7 42 12 3 5 6 151 6 324 -1 246 -4 319 -14
331 -12 14 -92 16 -800 16 l-786 0 -267 -268z m242 -62 l0 -180 -182 0 -183 0
180 180 c99 99 181 180 182 180 2 0 3 -81 3 -180z"/>
<path d="M1620 2303 l0 -43 151 0 150 0 -3 43 -3 42 -147 1 -148 0 0 -43z"/>
<path d="M1173 2132 c-19 -3 -23 -10 -23 -43 l0 -39 385 0 385 0 0 43 0 42
-363 0 c-199 0 -372 -1 -384 -3z"/>
<path d="M1211 1691 c-15 -15 -17 -91 -16 -844 0 -725 2 -829 15 -837 24 -15
1323 -13 1338 2 15 15 17 1654 2 1678 -8 13 -94 15 -666 16 -596 1 -659 -1
-673 -15z m1264 -193 c0 -68 -3 -125 -7 -128 -5 -4 -1153 -5 -1180 -1 -5 1 -8
19 -8 41 l0 40 255 0 255 0 0 43 0 44 -237 -2 c-131 0 -246 1 -255 3 -13 3
-18 14 -18 43 l0 39 598 0 597 0 0 -122z m0 -810 c0 -326 -3 -595 -7 -598 -5
-4 -1153 -5 -1180 -1 -5 1 -8 269 -8 596 l0 595 598 0 597 0 0 -592z"/>
<path d="M1879 1519 c-1 -10 -1 -26 -1 -34 0 -8 0 -19 1 -25 0 -5 30 -10 64
-10 l64 0 -1 42 -2 41 -62 3 c-55 2 -62 0 -63 -17z"/>
<path d="M1501 1191 c-5 -3 -9 -23 -9 -43 l0 -38 65 0 64 0 -3 42 -3 43 -52 1
c-29 0 -57 -2 -62 -5z"/>
<path d="M1719 1192 c-12 -2 -16 -12 -13 -35 1 -18 3 -36 3 -40 1 -4 29 -7 64
-5 67 3 65 1 58 71 -1 12 -68 18 -112 9z"/>
<path d="M1924 1191 c-2 -2 -4 -22 -4 -43 l0 -38 65 0 65 0 0 40 c0 22 -3 41
-7 41 -22 4 -115 4 -119 0z"/>
<path d="M2139 1189 c-5 -3 -9 -22 -7 -42 l2 -37 63 0 63 0 0 43 0 42 -56 0
c-30 0 -60 -2 -65 -6z"/>
<path d="M1408 940 c-4 -44 -10 -42 87 -44 81 -3 85 0 85 45 l0 39 -84 0 -84
0 -4 -40z"/>
<path d="M1664 967 c-2 -7 -2 -24 0 -37 2 -14 5 -27 5 -30 1 -5 136 -5 163 -1
4 1 6 19 5 41 l-2 40 -83 0 c-58 0 -84 -4 -88 -13z"/>
<path d="M1920 938 l0 -43 85 0 85 -1 0 43 0 43 -85 0 -85 0 0 -42z"/>
<path d="M2175 948 c0 -18 3 -38 7 -43 5 -8 129 -13 159 -6 3 0 6 19 7 41 l2
40 -88 0 -88 0 1 -32z"/>
<path d="M1410 767 l0 -43 83 1 82 0 3 43 3 42 -85 0 -86 0 0 -43z"/>
<path d="M1663 768 l0 -43 81 1 c45 1 84 2 87 3 3 0 5 18 4 39 l-1 37 -85 3
-86 3 0 -43z"/>
<path d="M1920 767 l0 -42 83 0 82 0 3 43 3 42 -85 0 -86 0 0 -43z"/>
<path d="M2179 808 c-5 -14 -5 -78 0 -79 3 -1 41 -2 84 -3 84 -3 84 -2 85 62
1 21 -3 22 -84 22 -46 0 -84 -1 -85 -2z"/>
<path d="M1410 597 l0 -43 78 1 c42 1 80 3 85 4 4 0 7 19 7 41 l0 40 -85 0
-85 0 0 -43z"/>
<path d="M1665 608 c1 -18 3 -38 3 -44 2 -12 140 -14 159 -1 6 4 10 22 9 40
l-2 32 -85 3 -85 3 1 -33z"/>
<path d="M1922 598 l3 -43 83 -1 82 -1 0 44 0 43 -86 0 -85 0 3 -42z"/>
<path d="M2175 608 c0 -18 3 -38 7 -44 4 -6 40 -10 85 -10 l78 1 1 43 1 42
-86 0 -87 0 1 -32z"/>
<path d="M1408 448 c-2 -13 -2 -32 1 -43 5 -18 14 -21 89 -21 l82 -1 0 44 0
43 -84 0 c-79 0 -84 -1 -88 -22z"/>
<path d="M1664 426 l1 -43 84 1 85 1 2 30 c3 52 -2 55 -90 55 l-83 0 1 -44z"/>
<path d="M1920 428 l0 -43 85 0 85 -1 0 43 0 43 -85 0 -85 0 0 -42z"/>
<path d="M2177 463 c-2 -5 -3 -24 -3 -43 l1 -35 85 0 85 0 3 43 3 42 -85 0
c-47 0 -87 -3 -89 -7z"/>
<path d="M1410 256 l0 -44 85 1 85 1 0 43 0 43 -85 0 -85 0 0 -44z"/>
<path d="M1665 258 l1 -43 81 -2 c87 -2 90 -1 89 52 l-1 30 -85 3 -86 3 1 -43z"/>
<path d="M1920 257 l0 -43 85 -1 85 0 0 43 0 44 -85 0 -85 0 0 -43z"/>
<path d="M2177 293 c-2 -5 -3 -24 -2 -43 l2 -35 84 0 84 0 0 43 1 42 -82 0
c-46 0 -85 -3 -87 -7z"/>
<path d="M14 1352 c-19 -19 -21 -1321 -2 -1340 17 -17 1069 -17 1086 0 15 15
17 675 2 698 -8 12 -48 15 -249 16 -133 0 -244 3 -247 7 -4 3 -7 141 -7 307 0
255 -2 302 -15 312 -23 19 -549 19 -568 0z m496 -137 l0 -65 -209 0 c-158 0
-210 3 -213 13 -4 10 -3 105 1 115 1 1 95 2 211 2 l210 0 0 -65z m0 -212 l0
-63 -212 2 -212 3 -1 55 c0 30 3 57 7 60 4 3 100 6 213 6 l205 0 0 -63z m-10
-152 c6 -1 10 -29 10 -63 l0 -63 -207 1 c-115 1 -210 2 -213 3 -3 1 -5 27 -5
59 0 52 2 57 24 62 20 4 348 5 391 1z m10 -275 l0 -64 -209 -1 c-161 -1 -210
1 -213 11 -3 11 -3 84 1 111 1 4 95 7 211 7 l210 0 0 -64z m511 52 c4 -43 5
-95 2 -105 -3 -8 -64 -12 -214 -12 -193 -1 -209 0 -210 16 0 10 -1 39 -2 66
l-2 47 213 0 c162 0 212 -3 213 -12z m-511 -265 l0 -63 -213 0 -212 0 0 58 c0
31 3 60 8 63 4 3 99 5 212 5 l205 0 0 -63z m505 59 c6 -1 10 -29 10 -62 l1
-60 -213 0 -213 0 -1 25 c-1 14 -1 36 -1 50 0 14 0 31 1 38 1 10 45 12 204 11
111 0 207 -2 212 -2z m-527 -211 c22 -1 23 -4 20 -63 l-3 -62 -208 0 c-114 -1
-207 1 -208 4 0 3 -2 31 -3 62 -2 57 -2 57 28 60 26 2 292 2 374 -1z m527 -3
c6 -5 9 -73 6 -108 -1 -13 -30 -15 -203 -14 -112 1 -207 2 -213 3 -8 1 -12 86
-6 121 1 7 409 5 416 -2z"/>
</g>
</svg>
